<svg class="svg-icon" style="width: 1.0693359375em;height: 1em;vertical-align: middle;fill: currentColor;overflow: hidden;" viewBox="0 0 1095 1024" version="1.1" xmlns="http://www.w3.org/2000/svg"><path d="M307.712 205.824v712.192c0 22.016 26.624 33.792 42.496 18.432l193.536-179.712c36.352-33.792 92.672-33.792 129.536 0l193.536 179.712c16.384 14.848 42.496 3.584 42.496-18.432V205.824c0-6.144-5.12-10.752-10.752-10.752H318.464c-6.144 0-10.752 5.12-10.752 10.752z" fill="#0091EB" /><path d="M524.288 350.72c-22.528 0-41.472 18.432-40.96 41.472 0 22.528 18.432 40.96 40.96 40.96H814.08c22.528 0 41.472-18.432 41.472-41.472 0-22.528-18.432-41.472-41.472-41.472 0.512 0.512-289.792 0.512-289.792 0.512z" fill="#FFB541" /><path d="M760.32 80.384H206.336c-11.264 0-20.48 9.216-20.48 20.48v711.68c0 18.432 21.504 26.112 34.816 17.408l33.28-19.968c4.096-4.096 6.144-9.216 6.144-14.336V174.592c0-11.264 9.216-20.48 20.48-20.48h480.256c11.264 0 20.48-9.216 20.48-20.48v-32.768c-0.512-11.264-9.728-20.48-20.992-20.48z" fill="#BBE2FF" /><path d="M739.328 529.92c-22.528 0-41.472 18.432-40.96 41.472 0 22.528 18.432 40.96 40.96 40.96H814.08c22.528 0 41.472-18.432 41.472-41.472 0-22.528-18.432-41.472-41.472-41.472 0.512 0.512-74.752 0.512-74.752 0.512z" fill="#FFFFFF" /></svg>