<svg class="svg-icon" style="width: 1em;height: 1em;vertical-align: middle;fill: currentColor;overflow: hidden;" viewBox="0 0 1024 1024" version="1.1" xmlns="http://www.w3.org/2000/svg"><path d="M939.835616 345.775342c-56.109589 45.589041-119.232877 56.109589-187.265753 28.054795-8.416438-3.506849-13.326027-2.805479-19.638356 4.208219-95.386301 95.386301-459.39726 467.112329-607.386302 614.4-26.652055 26.652055-70.136986 26.652055-96.789041 0-26.652055-26.652055-26.652055-70.136986 0-96.789041 147.989041-147.989041 512-519.013699 608.087672-614.4 8.416438-8.416438 6.312329-14.728767 3.506849-23.145205-35.769863-109.413699 27.353425-225.139726 138.169863-249.687672 24.547945-5.610959 51.2-2.805479 76.449315-2.104109 4.909589 0 12.624658 4.208219 14.027397 8.416438 1.40274 4.208219-2.10411 11.923288-5.610959 15.430137-25.950685 26.652055-53.30411 52.60274-79.254794 79.254795-45.589041 47.693151-28.054795 123.441096 34.367123 144.482191 34.367123 11.923288 65.227397 3.506849 91.178082-21.742465 25.249315-24.547945 49.79726-49.79726 75.046576-74.345206 4.909589-4.208219 13.326027-10.520548 17.534246-8.416438 5.610959 2.805479 10.520548 11.221918 11.221918 17.534246 8.416438 72.942466-16.832877 133.260274-73.643836 178.849315z" fill="#6097FD" /><path d="M516.208219 674.016438C567.408219 622.115068 617.205479 572.317808 669.808219 519.013699c30.860274 31.561644 61.019178 64.526027 92.580822 95.386301 66.630137 66.630137 133.961644 133.260274 200.591781 199.890411 21.742466 21.742466 42.082192 42.783562 49.09589 74.345205 9.819178 46.290411-10.520548 92.580822-51.90137 117.128768-38.575342 22.443836-91.178082 18.936986-124.142465-11.923288-44.186301-42.082192-86.969863-85.567123-129.753425-129.052055-60.317808-60.317808-119.934247-120.635616-180.252055-180.953425-4.208219-3.506849-7.013699-7.013699-9.819178-9.819178z" fill="#FFFFFF" /><path d="M798.860274 650.871233c54.706849 54.706849 109.413699 109.413699 164.120548 163.419178 21.742466 21.742466 42.082192 42.783562 49.09589 74.345205 9.819178 46.290411-10.520548 92.580822-51.90137 117.128768-38.575342 22.443836-91.178082 18.936986-124.142465-11.923288-44.186301-42.082192-86.969863-85.567123-129.753425-129.052055-60.317808-60.317808-119.934247-120.635616-180.252055-180.953425-3.506849-3.506849-6.312329-7.013699-9.117808-9.819178 51.2-51.90137 100.99726-101.69863 153.6-155.002739 30.860274 31.561644 61.019178 64.526027 92.580822 95.386301 11.221918 11.923288 23.145205 23.846575 35.769863 36.471233" fill="#4988FD" /><path d="M5.610959 90.476712C32.263014 63.824658 57.512329 37.172603 84.164384 10.520548c3.506849 2.10411 7.715068 4.208219 11.221917 7.013699 49.79726 35.068493 98.893151 70.838356 148.690411 105.906849 33.665753 23.846575 46.991781 61.019178 34.367124 100.29589-2.805479 9.117808-1.40274 14.728767 5.610959 21.742466 49.09589 48.394521 97.490411 96.789041 145.884931 145.183562 4.208219 4.208219 9.117808 6.312329 14.027397 9.819178-16.832877 16.832877-30.860274 30.860274-46.290411 45.589041-3.506849-3.506849-7.715068-7.013699-11.923287-11.221918-48.394521-48.394521-97.490411-96.789041-145.884932-145.884931-6.312329-6.312329-11.923288-8.416438-21.041096-5.610959-42.783562 12.624658-76.449315-0.70137-102.4-37.172603C79.254795 194.279452 42.082192 141.676712 5.610959 90.476712z" fill="#C5DCFA" /><path d="M899.156164 966.487671c-3.506849 0-7.013699-1.40274-9.819178-4.208219L603.879452 676.821918c-5.610959-5.610959-5.610959-14.027397 0-19.638356 5.610959-5.610959 14.027397-5.610959 19.638356 0l285.457534 285.457534c5.610959 5.610959 5.610959 14.027397 0 19.638356-2.805479 2.805479-6.312329 4.208219-9.819178 4.208219zM949.654795 915.989041c-3.506849 0-7.013699-1.40274-9.819179-4.208219L654.378082 626.323288c-5.610959-5.610959-5.610959-14.027397 0-19.638356 5.610959-5.610959 14.027397-5.610959 19.638356 0l285.457535 285.457534c5.610959 5.610959 5.610959 14.027397 0 19.638356-2.805479 2.805479-6.312329 4.208219-9.819178 4.208219z" fill="#2767F4" /><path d="M82.761644 938.432877m-29.457534 0a29.457534 29.457534 0 1 0 58.915068 0 29.457534 29.457534 0 1 0-58.915068 0Z" fill="#2767F4" /><path d="M131.156164 906.871233c-4.208219 0-9.117808-1.40274-12.624657-4.909589-7.013699-7.013699-7.013699-18.235616 0-24.547945l533.041096-533.041096c7.013699-7.013699 18.235616-7.013699 24.547945 0 6.312329 7.013699 7.013699 18.235616 0 24.547945l-533.041096 533.041096c-2.805479 3.506849-7.013699 4.909589-11.923288 4.909589z" fill="#2767F4" /></svg>